<mxfile host="app.diagrams.net" modified="2025-09-19T14:31:54.735Z" agent="5.0" etag="diagram" version="24.7.17" type="device">
  <diagram name="WhatsApp MCP System" id="whatsapp-mcp-system">
    <mxGraphModel dx="1422" dy="794" grid="1" gridSize="10" guides="1" tooltips="1" connect="1" arrows="1" fold="1" page="1" pageScale="1" pageWidth="827" pageHeight="1169" math="0" shadow="0">
      <root>
        <mxCell id="0" />
        <mxCell id="1" parent="0" />
        
        <!-- User -->
        <mxCell id="user" value="Usuário" style="shape=umlActor;verticalLabelPosition=bottom;verticalAlign=top;html=1;outlineConnect=0;fillColor=#dae8fc;strokeColor=#6c8ebf;" vertex="1" parent="1">
          <mxGeometry x="50" y="200" width="30" height="60" as="geometry" />
        </mxCell>
        
        <!-- Q CLI -->
        <mxCell id="qcli" value="Amazon Q CLI&#xa;(q chat)" style="rounded=1;whiteSpace=wrap;html=1;fillColor=#fff2cc;strokeColor=#d6b656;" vertex="1" parent="1">
          <mxGeometry x="150" y="200" width="120" height="60" as="geometry" />
        </mxCell>
        
        <!-- MCP Protocol -->
        <mxCell id="mcp" value="Model Context Protocol&#xa;(MCP)" style="ellipse;whiteSpace=wrap;html=1;fillColor=#e1d5e7;strokeColor=#9673a6;" vertex="1" parent="1">
          <mxGeometry x="320" y="200" width="120" height="60" as="geometry" />
        </mxCell>
        
        <!-- MCP Server -->
        <mxCell id="mcpserver" value="WhatsApp MCP Server&#xa;(Node.js)" style="rounded=1;whiteSpace=wrap;html=1;fillColor=#d5e8d4;strokeColor=#82b366;" vertex="1" parent="1">
          <mxGeometry x="500" y="200" width="120" height="60" as="geometry" />
        </mxCell>
        
        <!-- WhatsApp API -->
        <mxCell id="whatsapp" value="WhatsApp API&#xa;(Mock)" style="rounded=1;whiteSpace=wrap;html=1;fillColor=#f8cecc;strokeColor=#b85450;" vertex="1" parent="1">
          <mxGeometry x="680" y="200" width="120" height="60" as="geometry" />
        </mxCell>
        
        <!-- Configuration -->
        <mxCell id="config" value="mcp.json&#xa;Configuration" style="shape=note;whiteSpace=wrap;html=1;backgroundOutline=1;darkOpacity=0.05;fillColor=#f5f5f5;strokeColor=#666666;" vertex="1" parent="1">
          <mxGeometry x="320" y="100" width="120" height="60" as="geometry" />
        </mxCell>
        
        <!-- Arrows -->
        <mxCell id="arrow1" value="Comando de chat" style="edgeStyle=orthogonalEdgeStyle;rounded=0;orthogonalLoop=1;jettySize=auto;html=1;exitX=1;exitY=0.5;exitDx=0;exitDy=0;entryX=0;entryY=0.5;entryDx=0;entryDy=0;" edge="1" parent="1" source="user" target="qcli">
          <mxGeometry relative="1" as="geometry" />
        </mxCell>
        
        <mxCell id="arrow2" value="MCP Request" style="edgeStyle=orthogonalEdgeStyle;rounded=0;orthogonalLoop=1;jettySize=auto;html=1;exitX=1;exitY=0.5;exitDx=0;exitDy=0;entryX=0;entryY=0.5;entryDx=0;entryDy=0;" edge="1" parent="1" source="qcli" target="mcp">
          <mxGeometry relative="1" as="geometry" />
        </mxCell>
        
        <mxCell id="arrow3" value="Tool Call" style="edgeStyle=orthogonalEdgeStyle;rounded=0;orthogonalLoop=1;jettySize=auto;html=1;exitX=1;exitY=0.5;exitDx=0;exitDy=0;entryX=0;entryY=0.5;entryDx=0;entryDy=0;" edge="1" parent="1" source="mcp" target="mcpserver">
          <mxGeometry relative="1" as="geometry" />
        </mxCell>
        
        <mxCell id="arrow4" value="API Call" style="edgeStyle=orthogonalEdgeStyle;rounded=0;orthogonalLoop=1;jettySize=auto;html=1;exitX=1;exitY=0.5;exitDx=0;exitDy=0;entryX=0;entryY=0.5;entryDx=0;entryDy=0;" edge="1" parent="1" source="mcpserver" target="whatsapp">
          <mxGeometry relative="1" as="geometry" />
        </mxCell>
        
        <mxCell id="arrow5" value="Configura" style="edgeStyle=orthogonalEdgeStyle;rounded=0;orthogonalLoop=1;jettySize=auto;html=1;exitX=0.5;exitY=1;exitDx=0;exitDy=0;entryX=0.5;entryY=0;entryDx=0;entryDy=0;dashed=1;" edge="1" parent="1" source="config" target="mcp">
          <mxGeometry relative="1" as="geometry" />
        </mxCell>
        
        <!-- Return arrows -->
        <mxCell id="return1" value="Response" style="edgeStyle=orthogonalEdgeStyle;rounded=0;orthogonalLoop=1;jettySize=auto;html=1;exitX=0;exitY=0.7;exitDx=0;exitDy=0;entryX=1;entryY=0.7;entryDx=0;entryDy=0;dashed=1;" edge="1" parent="1" source="whatsapp" target="mcpserver">
          <mxGeometry relative="1" as="geometry" />
        </mxCell>
        
        <mxCell id="return2" value="Result" style="edgeStyle=orthogonalEdgeStyle;rounded=0;orthogonalLoop=1;jettySize=auto;html=1;exitX=0;exitY=0.7;exitDx=0;exitDy=0;entryX=1;entryY=0.7;entryDx=0;entryDy=0;dashed=1;" edge="1" parent="1" source="mcpserver" target="mcp">
          <mxGeometry relative="1" as="geometry" />
        </mxCell>
        
        <mxCell id="return3" value="MCP Response" style="edgeStyle=orthogonalEdgeStyle;rounded=0;orthogonalLoop=1;jettySize=auto;html=1;exitX=0;exitY=0.7;exitDx=0;exitDy=0;entryX=1;entryY=0.7;entryDx=0;entryDy=0;dashed=1;" edge="1" parent="1" source="mcp" target="qcli">
          <mxGeometry relative="1" as="geometry" />
        </mxCell>
        
        <mxCell id="return4" value="Resposta formatada" style="edgeStyle=orthogonalEdgeStyle;rounded=0;orthogonalLoop=1;jettySize=auto;html=1;exitX=0;exitY=0.7;exitDx=0;exitDy=0;entryX=1;entryY=0.7;entryDx=0;entryDy=0;dashed=1;" edge="1" parent="1" source="qcli" target="user">
          <mxGeometry relative="1" as="geometry" />
        </mxCell>
        
        <!-- Flow description -->
        <mxCell id="flow" value="Fluxo de Funcionamento:&#xa;1. Usuário digita comando no Q CLI&#xa;2. Q CLI identifica ferramenta MCP&#xa;3. Protocolo MCP chama servidor&#xa;4. Servidor executa ação no WhatsApp&#xa;5. Resposta retorna pelo mesmo caminho" style="rounded=0;whiteSpace=wrap;html=1;align=left;verticalAlign=top;fillColor=#f5f5f5;strokeColor=#666666;" vertex="1" parent="1">
          <mxGeometry x="50" y="320" width="300" height="100" as="geometry" />
        </mxCell>
        
        <!-- Tools -->
        <mxCell id="tools" value="Ferramentas Disponíveis:&#xa;• send_whatsapp_message&#xa;• (futuras extensões)" style="rounded=0;whiteSpace=wrap;html=1;align=left;verticalAlign=top;fillColor=#e1d5e7;strokeColor=#9673a6;" vertex="1" parent="1">
          <mxGeometry x="450" y="320" width="200" height="100" as="geometry" />
        </mxCell>
        
      </root>
    </mxGraphModel>
  </diagram>
</mxfile>
